<svg xmlns="http://www.w3.org/2000/svg" viewBox="0 0 27.72 30.02"><title>Preproduct_icon</title><g id="Artwork"><path d="M27.71,15.55a12.21,12.21,0,0,0-1.8-6.17,10.2,10.2,0,0,0-1.24-1.67,8.52,8.52,0,0,0-2.39-1.82A9,9,0,0,0,20.6,3.31,9.55,9.55,0,0,0,19.06,2,10.17,10.17,0,0,0,13.36,0H2A1.87,1.87,0,0,0,.58.62,2.2,2.2,0,0,0,0,2.12V29.19a.69.69,0,0,0,.19.48.24.24,0,0,0,.08.06.73.73,0,0,0,0,.09.61.61,0,0,0,.45.2h25a1.92,1.92,0,0,0,1.59-.88,2.47,2.47,0,0,0,.36-1.37Zm-2.44,11a.82.82,0,0,1-.22.56.68.68,0,0,1-.51.23H2.91V3.45a.82.82,0,0,1,.22-.56.68.68,0,0,1,.51-.23H6.12c2.31,0,4.77,0,7.18.07a7.74,7.74,0,0,1,4.38,1.5,5,5,0,0,1,.53.41l.19.17.14.13.25.25a.46.46,0,0,0,.07.07l.47.53a6.05,6.05,0,0,1,1,2.2.68.68,0,0,0,0,.12,9.21,9.21,0,0,1,.24,1.33,8.47,8.47,0,0,1-1.47,6.14,7.73,7.73,0,0,1-4.09,2.83,9.33,9.33,0,0,1-3.31.51H11.6l-1.37,0v-.85c0-.61,0-1.6.08-2.38a7.71,7.71,0,0,1,.38-1.75,3.62,3.62,0,0,0-1-.44,5.77,5.77,0,0,0-1.43-.3,5.81,5.81,0,0,0-.17.58,10.93,10.93,0,0,0-.34,3V19H5.61v2.6h6.63a9.77,9.77,0,0,0,2.95-.36,10.43,10.43,0,0,0,5.93-3.92,11.15,11.15,0,0,0,2-7.32,9,9,0,0,1,.66.92,9.37,9.37,0,0,1,1.38,4.75c.06,2.61.07,5.27.07,7.77Z"/><path d="M11.27,11.58A7.38,7.38,0,0,1,12.9,9.37a5.85,5.85,0,0,1,4.83-1.55A2.55,2.55,0,0,0,17.2,6.6a3.57,3.57,0,0,0-1.82-1.29,7.83,7.83,0,0,0-3.87,2,9.68,9.68,0,0,0-2.24,3.14,5.58,5.58,0,0,1,1.24.57A5.48,5.48,0,0,1,11.27,11.58Z"/><polygon points="7.74 23.46 7.74 26 10.15 26 10.15 23.42 7.74 23.46"/></g></svg>
